<?xml version="1.0" standalone="no"?>
<!DOCTYPE svg PUBLIC "-//W3C//DTD SVG 20010904//EN"
 "http://www.w3.org/TR/2001/REC-SVG-20010904/DTD/svg10.dtd">
<svg version="1.0" xmlns="http://www.w3.org/2000/svg"
 width="439.000000pt" height="179.000000pt" viewBox="0 0 439.000000 179.000000"
 preserveAspectRatio="xMidYMid meet">

<g transform="translate(0.000000,179.000000) scale(0.100000,-0.100000)"
fill="#000000" stroke="none">
<path d="M1698 1771 c-73 -24 -116 -51 -166 -105 -97 -106 -115 -187 -110
-502 4 -212 7 -245 26 -296 43 -117 110 -189 221 -235 60 -24 78 -27 196 -27
101 -1 140 3 175 17 l45 17 20 -24 c11 -13 35 -43 53 -66 l34 -41 66 3 c53 2
67 6 70 20 2 9 -22 51 -52 94 -60 83 -64 95 -40 115 23 19 62 101 82 172 13
50 17 106 17 287 0 207 -2 231 -23 299 -40 127 -100 199 -211 254 -63 31 -70
32 -206 34 -114 2 -150 -1 -197 -16z m310 -131 c64 -29 105 -71 139 -144 l28
-61 0 -235 c0 -221 -1 -238 -23 -291 -27 -66 -80 -124 -142 -153 -35 -16 -64
-21 -135 -21 -78 0 -97 4 -140 27 -128 67 -165 166 -165 434 0 271 40 376 168
443 66 35 192 35 270 1z"/>
<path d="M2455 1768 c-3 -7 -4 -267 -3 -578 l3 -565 70 0 70 0 0 575 0 575
-68 3 c-48 2 -69 -1 -72 -10z"/>
<path d="M2706 1764 c-3 -9 -6 -31 -6 -49 0 -67 -6 -65 186 -65 l174 0 0 -492
c0 -271 3 -503 6 -515 6 -21 12 -23 74 -23 53 0 69 4 74 16 3 9 6 240 6 515
l0 499 178 2 177 3 3 39 c2 22 1 50 -2 63 l-6 23 -429 0 c-382 0 -430 -2 -435
-16z"/>
<path d="M1170 1503 l0 -267 28 27 27 26 -3 240 -3 241 -24 0 -25 0 0 -267z"/>
<path d="M3912 1485 c-86 -24 -150 -72 -184 -139 -26 -51 -26 -141 1 -193 40
-78 93 -108 279 -157 194 -52 222 -71 222 -154 0 -56 -36 -94 -110 -116 -106
-32 -188 -15 -264 55 -51 47 -57 49 -110 49 -65 0 -76 -12 -55 -61 19 -47 77
-98 149 -133 62 -30 70 -31 190 -30 106 0 134 4 183 23 112 44 166 117 167
224 0 73 -17 113 -67 158 -44 40 -114 70 -220 94 -178 41 -243 80 -243 146 0
81 66 129 176 129 80 0 135 -23 183 -75 27 -30 38 -35 75 -35 83 0 86 54 6
131 -30 30 -69 55 -106 68 -76 29 -201 36 -272 16z"/>
<path d="M590 1160 l0 -130 88 0 c49 0 137 -3 195 -7 l107 -6 0 136 0 137
-195 0 -195 0 0 -130z"/>
<path d="M140 919 l0 -101 82 -106 c45 -59 92 -120 105 -135 l23 -29 0 236 0
236 -105 0 -105 0 0 -101z"/>
<path d="M993 680 l0 -130 114 0 113 0 0 130 0 130 -114 0 -113 0 0 -130z"/>
<path d="M984 266 c-58 -25 -71 -131 -23 -182 24 -25 80 -33 109 -14 24 15 5
22 -24 9 -23 -11 -30 -10 -53 7 -78 58 -30 203 54 165 14 -7 24 -7 28 -1 4 6
-6 15 -20 20 -32 12 -33 12 -71 -4z"/>
<path d="M1242 265 c-17 -13 -22 -25 -20 -48 2 -26 11 -35 53 -56 50 -26 62
-44 46 -70 -11 -17 -66 -17 -86 -1 -9 7 -15 7 -19 1 -9 -14 27 -31 68 -31 40
0 66 21 66 55 0 28 -10 38 -65 69 -48 26 -56 51 -22 67 18 8 30 8 47 -1 23
-13 40 -6 24 10 -19 19 -68 22 -92 5z"/>
<path d="M1534 270 c-51 -20 -71 -108 -39 -169 16 -32 33 -41 79 -41 93 0 118
169 30 206 -38 16 -41 16 -70 4z m66 -20 c26 -14 43 -71 33 -111 -11 -41 -53
-74 -82 -64 -51 16 -68 119 -26 160 26 27 46 31 75 15z"/>
<path d="M4028 204 c2 -42 5 -74 6 -72 2 1 6 36 10 76 5 54 3 72 -6 72 -10 0
-12 -20 -10 -76z"/>
<path d="M380 165 c0 -59 4 -105 9 -105 6 0 11 19 13 43 3 41 4 42 43 45 49 4
75 26 75 62 0 41 -28 60 -88 60 l-52 0 0 -105z m88 89 c13 -4 25 -17 29 -32 8
-32 -25 -62 -68 -62 -28 0 -29 2 -29 43 0 58 10 66 68 51z"/>
<path d="M570 165 c0 -63 4 -105 10 -105 6 0 10 20 10 45 0 41 2 45 24 45 18
0 31 -11 50 -45 15 -25 32 -45 37 -45 6 0 9 3 7 8 -2 4 -12 23 -22 43 -18 36
-18 37 3 58 11 11 21 32 21 45 0 40 -25 56 -86 56 l-54 0 0 -105z m112 73 c21
-34 -8 -68 -58 -68 -33 0 -34 1 -34 38 0 21 3 42 8 46 10 11 74 -1 84 -16z"/>
<path d="M770 165 l0 -105 60 0 c33 0 60 4 60 10 0 6 -22 10 -50 10 l-50 0 0
40 0 40 40 0 c22 0 40 5 40 10 0 6 -18 10 -40 10 -40 0 -40 0 -40 39 l0 40 53
4 52 3 -62 2 -63 2 0 -105z"/>
<path d="M1130 165 c0 -87 3 -105 15 -105 12 0 15 18 15 105 0 87 -3 105 -15
105 -12 0 -15 -18 -15 -105z"/>
<path d="M1400 165 c0 -63 4 -105 10 -105 6 0 10 42 10 105 0 63 -4 105 -10
105 -6 0 -10 -42 -10 -105z"/>
<path d="M1710 165 c0 -130 18 -141 22 -13 l3 93 50 -89 c28 -49 56 -91 63
-94 9 -3 12 22 12 102 0 72 -4 106 -11 106 -8 0 -10 -28 -7 -90 2 -49 3 -90 2
-90 -1 0 -25 41 -53 90 -70 121 -81 119 -81 -15z"/>
<path d="M2000 165 c0 -63 4 -105 10 -105 6 0 10 42 10 105 0 63 -4 105 -10
105 -6 0 -10 -42 -10 -105z"/>
<path d="M2090 166 c0 -72 4 -106 11 -106 8 0 10 28 7 90 -2 50 -3 90 -2 90 1
0 26 -40 54 -90 69 -121 80 -119 80 15 0 63 -4 105 -10 105 -6 0 -10 -38 -10
-92 l0 -93 -53 89 c-28 49 -58 91 -64 94 -10 3 -13 -22 -13 -102z"/>
<path d="M2370 165 l0 -105 65 0 c37 0 65 4 65 10 0 6 -25 10 -55 10 l-55 0 0
40 0 40 45 0 c25 0 45 5 45 10 0 6 -21 10 -46 10 l-45 0 3 38 c3 37 4 37 53
43 l50 6 -62 1 -63 2 0 -105z"/>
<path d="M2524 252 c41 -127 65 -187 77 -190 10 -2 24 27 47 96 35 108 36 112
22 112 -8 0 -19 -31 -56 -162 -10 -33 -19 -18 -44 69 -14 47 -31 88 -39 91 -9
3 -11 -1 -7 -16z"/>
<path d="M2720 165 l0 -105 65 0 c37 0 65 4 65 10 0 6 -25 10 -55 10 l-55 0 0
40 0 40 45 0 c25 0 45 5 45 10 0 6 -21 10 -46 10 l-45 0 3 38 c3 37 4 37 53
43 l50 6 -62 1 -63 2 0 -105z"/>
<path d="M2900 165 c0 -63 4 -105 10 -105 6 0 10 20 10 45 0 41 2 45 24 45 17
0 29 -11 47 -45 13 -25 30 -45 37 -45 10 0 6 14 -13 46 -22 37 -25 48 -14 55
8 5 17 9 20 9 16 0 19 54 4 76 -13 20 -23 24 -70 24 l-55 0 0 -105z m107 68
c20 -26 -6 -57 -51 -61 -36 -3 -36 -3 -36 36 0 21 3 42 7 46 12 12 67 -3 80
-21z"/>
<path d="M3090 210 c20 -40 30 -74 30 -105 0 -33 4 -45 15 -45 11 0 15 12 15
45 0 31 10 65 30 105 22 43 26 60 17 60 -8 0 -22 -20 -31 -45 -10 -25 -22 -47
-27 -51 -5 -3 -19 17 -31 45 -11 28 -27 51 -34 51 -10 0 -6 -17 16 -60z"/>
<path d="M3320 165 l0 -105 48 0 c27 0 57 7 70 16 29 20 30 69 1 84 -19 11
-19 13 -5 29 22 24 20 58 -3 71 -11 5 -40 10 -65 10 l-46 0 0 -105z m91 85
c41 -23 16 -70 -38 -70 -32 0 -33 1 -33 40 0 36 2 40 26 40 14 0 34 -5 45 -10z
m4 -92 c51 -23 17 -88 -47 -88 -27 0 -28 2 -28 50 0 46 2 50 25 50 13 0 36 -5
50 -12z"/>
<path d="M3510 210 c20 -40 30 -74 30 -105 0 -33 4 -45 15 -45 11 0 15 12 15
45 0 31 10 65 30 105 21 41 26 60 17 60 -7 0 -18 -15 -25 -33 -6 -18 -18 -42
-26 -52 -14 -19 -16 -17 -37 33 -12 28 -28 52 -35 52 -10 0 -6 -17 16 -60z"/>
<path d="M3670 261 l35 -6 3 -97 c1 -54 7 -98 12 -98 5 0 11 44 12 97 l3 98
35 6 c22 4 3 6 -50 6 -53 0 -72 -2 -50 -6z"/>
<path d="M3840 165 l0 -105 65 0 c37 0 65 4 65 10 0 6 -22 10 -50 10 l-50 0 0
40 0 40 40 0 c22 0 40 5 40 10 0 6 -18 10 -40 10 -40 0 -40 0 -40 39 l0 40 48
4 c42 3 41 4 -15 5 l-63 2 0 -105z"/>
<path d="M180 170 c0 -5 25 -10 55 -10 30 0 55 5 55 10 0 6 -25 10 -55 10 -30
0 -55 -4 -55 -10z"/>
<path d="M4140 170 c0 -5 25 -10 55 -10 30 0 55 5 55 10 0 6 -25 10 -55 10
-30 0 -55 -4 -55 -10z"/>
<path d="M4020 75 c0 -8 7 -15 15 -15 8 0 15 7 15 15 0 8 -7 15 -15 15 -8 0
-15 -7 -15 -15z"/>
</g>
</svg>
